<svg width="22" height="20" viewBox="0 0 22 20" fill="none" xmlns="http://www.w3.org/2000/svg">
<path d="M0.805589 3.53046C0.415064 3.92099 0.415064 4.55415 0.805589 4.94468C1.19611 5.3352 1.82928 5.3352 2.2198 4.94468L4.69468 2.4698C5.0852 2.07928 5.0852 1.44611 4.69468 1.05559C4.30415 0.665064 3.67099 0.665064 3.28046 1.05559L0.805589 3.53046Z" fill="#FDFDFD"/>
<path d="M17.2929 1.29291C17.6834 0.902389 18.3166 0.902389 18.7071 1.29291L21.182 3.76779C21.5725 4.15831 21.5725 4.79148 21.182 5.182C20.7915 5.57253 20.1583 5.57253 19.7678 5.182L17.2929 2.70713C16.9024 2.3166 16.9024 1.68344 17.2929 1.29291Z" fill="#FDFDFD"/>
<path fill-rule="evenodd" clip-rule="evenodd" d="M11 20C15.9706 20 20 15.9706 20 11C20 6.02946 15.9706 2.00002 11 2.00002C6.02944 2.00002 2 6.02946 2 11C2 15.9706 6.02944 20 11 20ZM11 8.00002C11 7.44774 10.5523 7.00002 10 7.00002C9.44772 7.00002 9 7.44774 9 8.00002V13C9 13.5523 9.44772 14 10 14H13C13.5523 14 14 13.5523 14 13C14 12.4477 13.5523 12 13 12H11V8.00002Z" fill="#FDFDFD"/>
</svg>
