<svg width="18" height="23" viewBox="0 0 18 23" fill="none" xmlns="http://www.w3.org/2000/svg">
<path fill-rule="evenodd" clip-rule="evenodd" d="M6.8125 0.0812378C6.21534 0.0812378 5.73125 0.56533 5.73125 1.16249C5.73125 1.75965 6.21534 2.24374 6.8125 2.24374H7.89375V4.4711C3.47711 5.00476 0.0546875 8.76598 0.0546875 13.3266C0.0546875 18.2531 4.04845 22.2469 8.975 22.2469C13.9016 22.2469 17.8953 18.2531 17.8953 13.3266C17.8953 8.76598 14.4729 5.00476 10.0563 4.4711V2.24374H11.1375C11.7347 2.24374 12.2188 1.75965 12.2188 1.16249C12.2188 0.56533 11.7347 0.0812378 11.1375 0.0812378H6.8125ZM8.43438 7.64999C9.03153 7.64999 9.51563 8.13408 9.51563 8.73124V13.0562H11.6781C12.2753 13.0562 12.7594 13.5403 12.7594 14.1375C12.7594 14.7346 12.2753 15.2187 11.6781 15.2187H8.43438C7.83722 15.2187 7.35313 14.7346 7.35313 14.1375V8.73124C7.35313 8.13408 7.83722 7.64999 8.43438 7.64999Z" fill="white"/>
</svg>
