<svg width="22" height="21" viewBox="0 0 22 21" fill="none" xmlns="http://www.w3.org/2000/svg">
<path d="M0.162476 11.0563C0.162476 5.0847 5.0034 0.243774 10.975 0.243774C16.9466 0.243774 21.7875 5.0847 21.7875 11.0563V16.4625C21.7875 17.0597 21.3034 17.5438 20.7062 17.5438C20.666 17.5438 20.6263 17.5416 20.5872 17.5373C20.3361 18.1743 19.7152 18.625 18.989 18.625C18.8426 18.625 18.7006 18.6067 18.5649 18.5723C17.2189 19.4942 15.2487 20.2469 12.5969 20.2469C11.9997 20.2469 11.5156 19.7628 11.5156 19.1657C11.5156 18.5685 11.9997 18.0844 12.5969 18.0844C14.7783 18.0844 16.294 17.4864 17.2717 16.8358V14.5583C17.2717 13.157 18.6125 12.5742 19.625 12.9354V11.0563C19.625 6.27901 15.7522 2.40627 10.975 2.40627C6.19771 2.40627 2.32498 6.27901 2.32498 11.0563V12.9468C3.33806 12.5858 4.67828 13.1711 4.67828 14.5711V16.9077C4.67828 17.8562 3.90943 18.625 2.961 18.625C2.23481 18.625 1.6139 18.1743 1.36279 17.5373C1.32369 17.5416 1.28396 17.5438 1.24373 17.5438C0.646568 17.5438 0.162476 17.0597 0.162476 16.4625V11.0563Z" fill="white"/>
</svg>
