<svg width="20" height="19" viewBox="0 0 20 19" fill="none" xmlns="http://www.w3.org/2000/svg">
<path d="M0 10C0 4.47715 4.47715 0 10 0C15.5228 0 20 4.47715 20 10V15C20 15.5523 19.5523 16 19 16C18.9628 16 18.9261 15.998 18.8899 15.994C18.6577 16.5831 18.0834 17 17.4118 17C17.2764 17 17.145 16.9831 17.0196 16.9512C15.7747 17.8038 13.9526 18.5 11.5 18.5C10.9477 18.5 10.5 18.0523 10.5 17.5C10.5 16.9477 10.9477 16.5 11.5 16.5C13.5175 16.5 14.9193 15.947 15.8235 15.3452V13.2389C15.8235 11.9429 17.0636 11.4038 18 11.7379V10C18 5.58172 14.4183 2 10 2C5.58172 2 2 5.58172 2 10V11.7484C2.93695 11.4146 4.17647 11.9559 4.17647 13.2507V15.4118C4.17647 16.2889 3.46539 17 2.58824 17C1.91661 17 1.34236 16.5831 1.11012 15.994C1.07396 15.998 1.03722 16 1 16C0.447715 16 0 15.5523 0 15V10Z" fill="white"/>
</svg>
