<svg width="18" height="23" viewBox="0 0 18 23" fill="none" xmlns="http://www.w3.org/2000/svg">
<path fill-rule="evenodd" clip-rule="evenodd" d="M10.2971 0.405945H3.81022C2.01891 0.405945 0.566772 1.85808 0.566772 3.64939V18.7855C0.566772 20.5768 2.01891 22.0289 3.81022 22.0289H14.6217C16.413 22.0289 17.8651 20.5768 17.8651 18.7855V9.05513H14.6217C12.2333 9.05513 10.2971 7.11895 10.2971 4.73054V0.405945ZM3.81022 11.2174C3.81022 10.6203 4.29426 10.1363 4.89137 10.1363H13.5406C14.1377 10.1363 14.6217 10.6203 14.6217 11.2174C14.6217 11.8145 14.1377 12.2986 13.5406 12.2986H4.89137C4.29426 12.2986 3.81022 11.8145 3.81022 11.2174ZM4.89137 15.542C4.29426 15.542 3.81022 16.0261 3.81022 16.6232C3.81022 17.2203 4.29426 17.7043 4.89137 17.7043H13.5406C14.1377 17.7043 14.6217 17.2203 14.6217 16.6232C14.6217 16.0261 14.1377 15.542 13.5406 15.542H4.89137Z" fill="white"/>
<path d="M17.6451 6.89284C17.5188 6.56773 17.34 6.2627 17.1134 5.99072L13.4319 1.57299C13.1589 1.24528 12.8275 0.978834 12.4594 0.783707V4.73054C12.4594 5.92474 13.4275 6.89284 14.6217 6.89284H17.6451Z" fill="white"/>
</svg>
