<svg width="18" height="21" viewBox="0 0 18 21" fill="none" xmlns="http://www.w3.org/2000/svg">
<path fill-rule="evenodd" clip-rule="evenodd" d="M3 9V6C3 2.68629 5.68629 0 9 0C12.3137 0 15 2.68629 15 6V9C16.6569 9 18 10.3431 18 12V18C18 19.6569 16.6569 21 15 21H3C1.34315 21 0 19.6569 0 18V12C0 10.3431 1.34315 9 3 9ZM5 6C5 3.79086 6.79086 2 9 2C11.2091 2 13 3.79086 13 6V9H5V6ZM9 13C9.55229 13 10 13.4477 10 14V16C10 16.5523 9.55228 17 9 17C8.44771 17 8 16.5523 8 16V14C8 13.4477 8.44771 13 9 13Z" fill="white"/>
</svg>
