<svg width="22" height="19" viewBox="0 0 22 19" fill="none" xmlns="http://www.w3.org/2000/svg">
<path d="M10 4.79198C9.11705 4.4062 8.5 3.52516 8.5 2.5C8.5 1.11929 9.61929 0 11 0C12.3807 0 13.5 1.11929 13.5 2.5C13.5 3.52516 12.883 4.4062 12 4.79198V9H16C18.2091 9 20 10.7909 20 13V14.208C20.883 14.5938 21.5 15.4748 21.5 16.5C21.5 17.8807 20.3807 19 19 19C17.6193 19 16.5 17.8807 16.5 16.5C16.5 15.4748 17.117 14.5938 18 14.208V13C18 11.8954 17.1046 11 16 11H12L12 14.208C12.883 14.5938 13.5 15.4748 13.5 16.5C13.5 17.8807 12.3807 19 11 19C9.61929 19 8.5 17.8807 8.5 16.5C8.5 15.4748 9.11705 14.5938 10 14.208L10 11H6C4.89543 11 4 11.8954 4 13V14.208C4.88295 14.5938 5.5 15.4748 5.5 16.5C5.5 17.8807 4.38071 19 3 19C1.61929 19 0.5 17.8807 0.5 16.5C0.5 15.4748 1.11705 14.5938 2 14.208V13C2 10.7909 3.79086 9 6 9H10V4.79198Z" fill="white"/>
</svg>
