
<svg width="20" height="20" viewBox="0 0 20 20" fill="none" xmlns="http://www.w3.org/2000/svg">
<path fill-rule="evenodd" clip-rule="evenodd" d="M10.216 19.9478C15.5899 19.9478 19.9463 15.5914 19.9463 10.2175C19.9463 4.84354 15.5899 0.487122 10.216 0.487122C4.84205 0.487122 0.485626 4.84354 0.485626 10.2175C0.485626 15.5914 4.84205 19.9478 10.216 19.9478ZM10.216 6.43344C10.216 5.83634 9.73192 5.35229 9.13482 5.35229C8.53771 5.35229 8.05367 5.83634 8.05367 6.43344V11.8392C8.05367 12.4363 8.53771 12.9203 9.13482 12.9203H12.3783C12.9754 12.9203 13.4594 12.4363 13.4594 11.8392C13.4594 11.2421 12.9754 10.758 12.3783 10.758H10.216V6.43344Z" fill="white"/>
</svg>
