<svg width="23" height="24" viewBox="0 0 23 24" fill="none" xmlns="http://www.w3.org/2000/svg">
<path d="M12.7717 11.488L16.7143 7.54533L3.97967 0.387995C3.13567 -0.0680046 2.34501 -0.132004 1.65167 0.366662L12.7717 11.488ZM17.3863 16.104L21.485 13.7987C22.285 13.3507 22.7237 12.716 22.7237 12.012C22.7237 11.3093 22.285 10.6733 21.4863 10.2253L17.7757 8.14133L13.5983 12.3173L17.3863 16.104ZM0.966341 1.336C0.881008 1.59866 0.833008 1.892 0.833008 2.21333V21.82C0.833008 22.328 0.945008 22.7653 1.14767 23.1133L11.9437 12.316L0.966341 1.336ZM12.7717 13.1427L2.03567 23.88C2.24101 23.9587 2.46234 24 2.69567 24C3.11167 24 3.54501 23.8773 3.98634 23.632L16.3263 16.7027L12.7717 13.1427Z" fill="white"/>
</svg>
